<?xml version="1.0" encoding="UTF-8" standalone="no"?>
<!DOCTYPE svg PUBLIC "-//W3C//DTD SVG 1.1//EN" "http://www.w3.org/Graphics/SVG/1.1/DTD/svg11.dtd">
<svg width="64px" height="64px" version="1.1" xmlns="http://www.w3.org/2000/svg" xmlns:xlink="http://www.w3.org/1999/xlink" xml:space="preserve" xmlns:serif="http://www.serif.com/" style="fill-rule:evenodd;clip-rule:evenodd;stroke-linejoin:round;stroke-miterlimit:2;">
    <circle cx="16" cy="0" r="1"/>
    <circle cx="16" cy="16" r="1"/>
    <circle cx="0" cy="16" r="1"/>
    <circle cx="64" cy="16" r="1"/>
    <circle cx="16" cy="32" r="1"/>
    <circle cx="0" cy="32" r="1"/>
    <circle cx="64" cy="32" r="1"/>
    <circle cx="16" cy="48" r="1"/>
    <circle cx="0" cy="48" r="1"/>
    <circle cx="64" cy="48" r="1"/>
    <circle cx="16" cy="64" r="1"/>
    <circle cx="32" cy="0" r="1"/>
    <circle cx="32" cy="16" r="1"/>
    <circle cx="32" cy="32" r="1"/>
    <circle cx="32" cy="48" r="1"/>
    <circle cx="32" cy="64" r="1"/>
    <circle cx="48" cy="0" r="1"/>
    <circle cx="64" cy="0" r="1"/>
    <circle cx="0" cy="0" r="1"/>
    <circle cx="64" cy="64" r="1"/>
    <circle cx="0" cy="64" r="1"/>
    <circle cx="48" cy="16" r="1"/>
    <circle cx="48" cy="32" r="1"/>
    <circle cx="48" cy="48" r="1"/>
    <circle cx="48" cy="64" r="1"/>
</svg>
